# xmcd
#
# Track frame offsets:
#	150
#	17450
#	33855
#	45828
#	66785
#	83403
#	104497
#	125356
#	146398
#	160444
#	182467
#	201835
#	218360
#
# Disc length: 3179 seconds
#
# Revision: 5
# Processed by: cddbd v1.5.2PL0 Copyright (c) Steve Scherf et al.
# Submitted via: audiograbber 1.83.01
#
DISCID=990c690d
DTITLE=Charlie Winston - Hobo
DYEAR=2009
DGENRE=Folk/Rock
TTITLE0=In Your Hands
TTITLE1=Like A Hobo
TTITLE2=Kick the Bucket
TTITLE3=I Love Your Smile
TTITLE4=My Life As A Duck
TTITLE5=Boxes
TTITLE6=Calling Me
TTITLE7=Tongue Tied
TTITLE8=I'm A Man (Live) (Bonus Track)
TTITLE9=Soundtrack To Falling In Love
TTITLE10=Generation Spent
TTITLE11=Every Step
TTITLE12=My Name
EXTD=
EXTT0=
EXTT1=
EXTT2=
EXTT3=
EXTT4=
EXTT5=
EXTT6=
EXTT7=
EXTT8=
EXTT9=
EXTT10=
EXTT11=
EXTT12=
PLAYORDER=
